<?xml version="1.0" encoding="UTF-8"?>
<svg id="Layer_1" data-name="Layer 1" xmlns="http://www.w3.org/2000/svg" viewBox="0 0 1440 1440">
  <defs>
    <style>
      .cls-1 {
        fill: #1f639b;
      }

      .cls-2 {
        fill: #3278bd;
      }

      .cls-3 {
        fill: #fbb040;
      }
    </style>
  </defs>
  <path class="cls-2" d="M293.61,418.72l86.73,384.38c1.35,6-6.35,9.59-9.98,4.66-37.46-50.98-130.12-188.08-144.55-314.75-.05-.42-.05-.82-.01-1.24,.56-6.19,6.64-54.56,60.13-77.03,3.22-1.35,6.9,.54,7.68,3.98Z"/>
  <path class="cls-2" d="M345.95,391.67c25.41,2.79,91.32,13.25,132.73,49.2,.61,.53,1.46,.64,2.17,.27,11.19-5.85,99.91-51.04,132.62-31.76,0,0,29.69,8.73,32.93,78.23,.03,.74,.47,1.41,1.15,1.72,16.7,7.61,218.96,102.33,184.35,214.21-.03,.08-.05,.16-.09,.24-1.66,3.78-45.15,98.27-196.06-31.43-.06-.05-.1-.08-.16-.12-2.81-1.9-83.8-57.43-51.6-139.09,.65-1.64-.93-3.28-2.55-2.6-15.45,6.49-64.59,38.01-1.84,162.5,.1,.2,.21,.35,.36,.51,9.13,9.04,313.44,308.23,527.85,211.97,.94-.42,1.42-1.47,1.09-2.44-7.34-21.66-85.1-245.69-187.71-327.86-.05-.04-.09-.07-.14-.11l-300.01-204.91c-.06-.04-.1-.07-.15-.12-2.14-1.82-56.96-47.37-159.83-15.64l-115.41,33.36c-2.08,.6-1.84,3.63,.31,3.86Z"/>
  <path class="cls-2" d="M395.21,841.96c46.66-.2,194.4-2.09,298.89-17.29,1.54-.22,3.07,.1,4.39,.94,22.79,14.53,232.5,147.61,306.94,173.12,5.85,2.01,5.83,10.27,0,12.3-47.7,16.58-173.37,47.62-327.59-14.06-4.64-1.86-219.09-78.26-287.11-143.79-4.21-4.06-1.36-11.19,4.49-11.21Z"/>
  <path class="cls-1" d="M581.07,992.8c49.78,20.93,193.67,71.85,386.68,56.93,3.27-.25,5.01,3.74,2.56,5.92-17.63,15.71-71.13,53.1-174.75,45.3,0,0-106.66-3.59-218.02-102.43-2.89-2.57-.03-7.23,3.54-5.73Z"/>
  <path class="cls-1" d="M633.11,354.89c67.17,40.85,321.74,183.93,362.37,244.63,.26,.38,22.41,32.05,22.73,32.38,.43,.43,1.1,1.06,2.01,2,2.56,2.66,25.77,39.8,34.14,58.28,6.52,14.39,64.6,168.82,64.6,168.82,2.7,6.74,12.37,6.24,14.37-.75,5.85-20.4,12.44-60.52,8.38-133.02-.03-.5-.1-.99-.22-1.48-2.81-10.94-38.41-144.06-136.96-251.18-.12-.13-.22-.25-.33-.39-4.87-6.25-133.64-169.65-278.6-158.79-.55,.04-1.1,.14-1.63,.29l-88.99,25.4c-6.38,1.82-7.54,10.35-1.87,13.8Z"/>
  <circle cx="380.5" cy="481.08" r="42.57"/>
  <path class="cls-3" d="M434.54,566.66l71.53,45.52s-14.3,71.02-35.76,104.31c-21.46,33.3-57.88,45.78-57.88,45.78l-23.71-150.09s42.96-12.22,45.82-45.52Z"/>
  <path class="cls-3" d="M1022.6,975.49c2.78,4.29,4.8,8.96,4.82,13.52,.01,1.94,.53,3.83,1.39,5.57l60.49,122.79c2.79,5.67,9.09,8.81,15.25,7.41,16.61-3.78,51.92-19.05,105.86-78.47,2.21-2.44,3.48-5.59,3.57-8.88,.47-17.74,1.25-78.7-7.88-134.02-1.46-8.85-10.96-13.88-19.17-10.25-34.17,15.14-114.8,50.12-156.39,61.81-8.82,2.48-12.93,12.83-7.95,20.52Z"/>
</svg>